<svg width="154" height="40" viewBox="0 0 154 40" fill="none" xmlns="http://www.w3.org/2000/svg">
<rect width="40" height="40" rx="4" fill="#E5F2E9"/>
<path d="M20 20.75C16.83 20.75 14.25 18.17 14.25 15C14.25 11.83 16.83 9.25 20 9.25C23.17 9.25 25.75 11.83 25.75 15C25.75 18.17 23.17 20.75 20 20.75ZM20 10.75C17.66 10.75 15.75 12.66 15.75 15C15.75 17.34 17.66 19.25 20 19.25C22.34 19.25 24.25 17.34 24.25 15C24.25 12.66 22.34 10.75 20 10.75Z" fill="#417F56"/>
<path d="M28.5901 30.75C28.1801 30.75 27.8401 30.41 27.8401 30C27.8401 26.55 24.3202 23.75 20.0002 23.75C15.6802 23.75 12.1602 26.55 12.1602 30C12.1602 30.41 11.8202 30.75 11.4102 30.75C11.0002 30.75 10.6602 30.41 10.6602 30C10.6602 25.73 14.8502 22.25 20.0002 22.25C25.1502 22.25 29.3401 25.73 29.3401 30C29.3401 30.41 29.0001 30.75 28.5901 30.75Z" fill="#417F56"/>
<rect x="48" width="40" height="40" rx="4" fill="#E5F2E9"/>
<path d="M74.19 25.75H63.54C62.55 25.75 61.6 25.33 60.93 24.6C60.26 23.87 59.92 22.89 60 21.9L60.83 11.94C60.86 11.63 60.75 11.33 60.54 11.1C60.33 10.87 60.04 10.75 59.73 10.75H58C57.59 10.75 57.25 10.41 57.25 10C57.25 9.59 57.59 9.25 58 9.25H59.74C60.47 9.25 61.16 9.56 61.65 10.09C61.92 10.39 62.12 10.74 62.23 11.13H74.72C75.73 11.13 76.66 11.53 77.34 12.25C78.01 12.98 78.35 13.93 78.27 14.94L77.73 22.44C77.62 24.27 76.02 25.75 74.19 25.75ZM62.28 12.62L61.5 22.02C61.45 22.6 61.64 23.15 62.03 23.58C62.42 24.01 62.96 24.24 63.54 24.24H74.19C75.23 24.24 76.17 23.36 76.25 22.32L76.79 14.82C76.83 14.23 76.64 13.67 76.25 13.26C75.86 12.84 75.32 12.61 74.73 12.61H62.28V12.62Z" fill="#417F56"/>
<path d="M72.25 30.75C71.15 30.75 70.25 29.85 70.25 28.75C70.25 27.65 71.15 26.75 72.25 26.75C73.35 26.75 74.25 27.65 74.25 28.75C74.25 29.85 73.35 30.75 72.25 30.75ZM72.25 28.25C71.97 28.25 71.75 28.47 71.75 28.75C71.75 29.03 71.97 29.25 72.25 29.25C72.53 29.25 72.75 29.03 72.75 28.75C72.75 28.47 72.53 28.25 72.25 28.25Z" fill="#417F56"/>
<path d="M64.25 30.75C63.15 30.75 62.25 29.85 62.25 28.75C62.25 27.65 63.15 26.75 64.25 26.75C65.35 26.75 66.25 27.65 66.25 28.75C66.25 29.85 65.35 30.75 64.25 30.75ZM64.25 28.25C63.97 28.25 63.75 28.47 63.75 28.75C63.75 29.03 63.97 29.25 64.25 29.25C64.53 29.25 64.75 29.03 64.75 28.75C64.75 28.47 64.53 28.25 64.25 28.25Z" fill="#417F56"/>
<path d="M77 16.75H65C64.59 16.75 64.25 16.41 64.25 16C64.25 15.59 64.59 15.25 65 15.25H77C77.41 15.25 77.75 15.59 77.75 16C77.75 16.41 77.41 16.75 77 16.75Z" fill="#417F56"/>
<rect x="96" width="40" height="40" rx="4" fill="#E5F2E9"/>
<path d="M115.5 29.75C109.85 29.75 105.25 25.15 105.25 19.5C105.25 13.85 109.85 9.25 115.5 9.25C121.15 9.25 125.75 13.85 125.75 19.5C125.75 25.15 121.15 29.75 115.5 29.75ZM115.5 10.75C110.67 10.75 106.75 14.68 106.75 19.5C106.75 24.32 110.67 28.25 115.5 28.25C120.33 28.25 124.25 24.32 124.25 19.5C124.25 14.68 120.33 10.75 115.5 10.75Z" fill="#417F56"/>
<path d="M126 30.75C125.81 30.75 125.62 30.68 125.47 30.53L123.47 28.53C123.18 28.24 123.18 27.76 123.47 27.47C123.76 27.18 124.24 27.18 124.53 27.47L126.53 29.47C126.82 29.76 126.82 30.24 126.53 30.53C126.38 30.68 126.19 30.75 126 30.75Z" fill="#417F56"/>
</svg>
